<?xml version="1.0" encoding="utf-8"?>
<svg xmlns="http://www.w3.org/2000/svg" version="1.1" width="1000" height="1000">

<circle cx="200" cy="100" r="7" fill="yellow" />
<text x="194" y="85" fill="yellow" >A</text>
<circle cx="600" cy="100" r="7" fill="yellow" />
<text x="594" y="85" fill="yellow" >B</text>
<circle cx="100" cy="200" r="7" fill="yellow" />
<text x="94" y="185" fill="yellow" >C</text>
<circle cx="300" cy="200" r="7" fill="red" />
<text x="294" y="185" fill="red" >D</text>
<circle cx="400" cy="200" r="7" fill="green" />
<text x="394" y="185" fill="green" >E</text>
<circle cx="500" cy="200" r="7" fill="red" />
<text x="494" y="185" fill="red" >F</text>
<circle cx="700" cy="200" r="7" fill="yellow" />
<text x="694" y="185" fill="yellow" >G</text>
<circle cx="200" cy="300" r="7" fill="yellow" />
<text x="194" y="285" fill="yellow" >H</text>
<circle cx="600" cy="300" r="7" fill="yellow" />
<text x="594" y="285" fill="yellow" >I</text>
<line x1="200" y1="100" x2="300" y2="200" stroke="black" />
<line x1="600" y1="100" x2="500" y2="200" stroke="black" />
<line x1="100" y1="200" x2="300" y2="200" stroke="black" />
<line x1="300" y1="200" x2="400" y2="200" stroke="black" />
<line x1="400" y1="200" x2="500" y2="200" stroke="black" />
<line x1="500" y1="200" x2="700" y2="200" stroke="black" />
<line x1="200" y1="300" x2="300" y2="200" stroke="black" />
<line x1="600" y1="300" x2="500" y2="200" stroke="black" />


</svg>
