<?xml version="1.0" encoding="utf-8"?>
<svg xmlns="http://www.w3.org/2000/svg" version="1.1" width="1000" height="1000">

<circle cx="300" cy="100" r="7" fill="green" />
<text x="294" y="85" fill="green" >A</text>
<circle cx="200" cy="200" r="7" fill="green" />
<text x="194" y="185" fill="green" >B</text>
<circle cx="400" cy="200" r="7" fill="orange" />
<text x="394" y="185" fill="orange" >C</text>
<circle cx="300" cy="300" r="7" fill="orange" />
<text x="294" y="285" fill="orange" >D</text>
<circle cx="200" cy="400" r="7" fill="orange" />
<text x="194" y="385" fill="orange" >E</text>
<circle cx="300" cy="400" r="7" fill="green" />
<text x="294" y="385" fill="green" >F</text>
<circle cx="400" cy="400" r="7" fill="orange" />
<text x="394" y="385" fill="orange" >G</text>
<circle cx="100" cy="500" r="7" fill="green" />
<text x="94" y="485" fill="green" >H</text>
<circle cx="500" cy="500" r="7" fill="green" />
<text x="494" y="485" fill="green" >I</text>
<line x1="300" y1="100" x2="200" y2="200" stroke="black" />
<line x1="300" y1="100" x2="400" y2="200" stroke="black" />
<line x1="400" y1="200" x2="300" y2="300" stroke="black" />
<line x1="300" y1="300" x2="200" y2="400" stroke="black" />
<line x1="300" y1="300" x2="400" y2="400" stroke="black" />
<line x1="200" y1="200" x2="100" y2="500" stroke="black" />
<line x1="400" y1="200" x2="500" y2="500" stroke="black" />
<line x1="200" y1="400" x2="300" y2="400" stroke="black" />
<line x1="300" y1="400" x2="400" y2="400" stroke="black" />
<line x1="400" y1="400" x2="500" y2="500" stroke="black" />
<line x1="200" y1="400" x2="100" y2="500" stroke="black" />
<circle cx="200" cy="100" r="7" fill="yellow" />
<text x="194" y="85" fill="yellow" >A</text>
<text x="194" y="70" fill="yellow" >CP : 0.0454545</text>
<text x="194" y="55" fill="yellow" >CVP : 0.154303</text>
<text x="194" y="40" fill="yellow" >CD : 1</text>
<circle cx="600" cy="100" r="7" fill="yellow" />
<text x="594" y="85" fill="yellow" >B</text>
<text x="594" y="70" fill="yellow" >CP : 0.0454545</text>
<text x="594" y="55" fill="yellow" >CVP : 0.154303</text>
<text x="594" y="40" fill="yellow" >CD : 1</text>
<circle cx="100" cy="200" r="7" fill="yellow" />
<text x="94" y="185" fill="yellow" >C</text>
<text x="94" y="170" fill="yellow" >CP : 0.0454545</text>
<text x="94" y="155" fill="yellow" >CVP : 0.154303</text>
<text x="94" y="140" fill="yellow" >CD : 1</text>
<circle cx="300" cy="200" r="7" fill="red" />
<text x="294" y="185" fill="red" >D</text>
<text x="294" y="170" fill="red" >CP : 0.0666667</text>
<text x="294" y="155" fill="red" >CVP : 0.617213</text>
<text x="294" y="140" fill="red" >CD : 4</text>
<circle cx="400" cy="200" r="7" fill="green" />
<text x="394" y="185" fill="green" >E</text>
<text x="394" y="170" fill="green" >CP : 0.0714286</text>
<text x="394" y="155" fill="green" >CVP : 0.308607</text>
<text x="394" y="140" fill="green" >CD : 2</text>
<circle cx="500" cy="200" r="7" fill="red" />
<text x="494" y="185" fill="red" >F</text>
<text x="494" y="170" fill="red" >CP : 0.0666667</text>
<text x="494" y="155" fill="red" >CVP : 0.617213</text>
<text x="494" y="140" fill="red" >CD : 4</text>
<circle cx="700" cy="200" r="7" fill="yellow" />
<text x="694" y="185" fill="yellow" >G</text>
<text x="694" y="170" fill="yellow" >CP : 0.0454545</text>
<text x="694" y="155" fill="yellow" >CVP : 0.154303</text>
<text x="694" y="140" fill="yellow" >CD : 1</text>
<circle cx="200" cy="300" r="7" fill="yellow" />
<text x="194" y="285" fill="yellow" >H</text>
<text x="194" y="270" fill="yellow" >CP : 0.0454545</text>
<text x="194" y="255" fill="yellow" >CVP : 0.154303</text>
<text x="194" y="240" fill="yellow" >CD : 1</text>
<circle cx="600" cy="300" r="7" fill="yellow" />
<text x="594" y="285" fill="yellow" >I</text>
<text x="594" y="270" fill="yellow" >CP : 0.0454545</text>
<text x="594" y="255" fill="yellow" >CVP : 0.154303</text>
<text x="594" y="240" fill="yellow" >CD : 1</text>
<line x1="200" y1="100" x2="300" y2="200" stroke="black" />
<line x1="600" y1="100" x2="500" y2="200" stroke="black" />
<line x1="100" y1="200" x2="300" y2="200" stroke="black" />
<line x1="300" y1="200" x2="400" y2="200" stroke="black" />
<line x1="400" y1="200" x2="500" y2="200" stroke="black" />
<line x1="500" y1="200" x2="700" y2="200" stroke="black" />
<line x1="200" y1="300" x2="300" y2="200" stroke="black" />
<line x1="600" y1="300" x2="500" y2="200" stroke="black" />
<circle cx="100" cy="200" r="7" fill="yellow" />
<text x="94" y="185" fill="yellow" >B</text>
<circle cx="200" cy="200" r="7" fill="red" />
<text x="194" y="185" fill="red" >C</text>
<circle cx="300" cy="200" r="7" fill="yellow" />
<text x="294" y="185" fill="yellow" >D</text>
<circle cx="200" cy="300" r="7" fill="yellow" />
<text x="194" y="285" fill="yellow" >E</text>
<line x1="200" y1="100" x2="200" y2="200" stroke="black" />
<line x1="100" y1="200" x2="200" y2="200" stroke="black" />
<line x1="200" y1="200" x2="300" y2="200" stroke="black" />
<line x1="200" y1="200" x2="200" y2="300" stroke="black" />


</svg>
