<?xml version="1.0" encoding="utf-8"?>
<svg xmlns="http://www.w3.org/2000/svg" version="1.1" width="1000" height="1000">

<circle cx="200" cy="100" r="7" fill="black" />
<text x="193" y="85" fill="black" >A</text>
<circle cx="600" cy="100" r="7" fill="black" />
<text x="593" y="85" fill="black" >B</text>
<circle cx="100" cy="200" r="7" fill="black" />
<text x="93" y="185" fill="black" >C</text>
<circle cx="300" cy="200" r="7" fill="black" />
<text x="293" y="185" fill="black" >D</text>
<circle cx="400" cy="200" r="7" fill="black" />
<text x="393" y="185" fill="black" >E</text>
<circle cx="500" cy="200" r="7" fill="black" />
<text x="493" y="185" fill="black" >F</text>
<circle cx="700" cy="200" r="7" fill="black" />
<text x="693" y="185" fill="black" >G</text>
<circle cx="200" cy="300" r="7" fill="black" />
<text x="193" y="285" fill="black" >H</text>
<circle cx="600" cy="300" r="7" fill="black" />
<text x="593" y="285" fill="black" >I</text>
<line x1="200" y1="100" x2="300" y2="200" stroke="black" />
<line x1="600" y1="100" x2="500" y2="200" stroke="black" />
<line x1="100" y1="200" x2="300" y2="200" stroke="black" />
<line x1="300" y1="200" x2="400" y2="200" stroke="black" />
<line x1="400" y1="200" x2="500" y2="200" stroke="black" />
<line x1="500" y1="200" x2="700" y2="200" stroke="black" />
<line x1="200" y1="300" x2="300" y2="200" stroke="black" />
<line x1="600" y1="300" x2="500" y2="200" stroke="black" />


</svg>
