<?xml version="1.0" encoding="utf-8"?>
<svg xmlns="http://www.w3.org/2000/svg" version="1.1" width="1000" height="1000">

<circle cx="200" cy="100" r="7" fill="orange" />
<text x="194" y="85" fill="orange" >A</text>
<text x="194" y="70" fill="orange" >CPn = 1</text>
<text x="194" y="55" fill="orange" >CVPn = 0.166667</text>
<text x="194" y="40" fill="orange" >CDn = 1</text>
<circle cx="100" cy="200" r="7" fill="orange" />
<text x="94" y="185" fill="orange" >B</text>
<text x="94" y="170" fill="orange" >CPn = 1</text>
<text x="94" y="155" fill="orange" >CVPn = 0.166667</text>
<text x="94" y="140" fill="orange" >CDn = 1</text>
<circle cx="200" cy="200" r="7" fill="orange" />
<text x="194" y="185" fill="orange" >C</text>
<text x="194" y="170" fill="orange" >CPn = 1</text>
<text x="194" y="155" fill="orange" >CVPn = 0.166667</text>
<text x="194" y="140" fill="orange" >CDn = 1</text>
<circle cx="300" cy="200" r="7" fill="orange" />
<text x="294" y="185" fill="orange" >D</text>
<text x="294" y="170" fill="orange" >CPn = 1</text>
<text x="294" y="155" fill="orange" >CVPn = 0.166667</text>
<text x="294" y="140" fill="orange" >CDn = 1</text>
<line x1="200" y1="100" x2="100" y2="200" stroke="black" />
<line x1="200" y1="100" x2="200" y2="200" stroke="black" />
<line x1="200" y1="100" x2="300" y2="200" stroke="black" />
<line x1="100" y1="200" x2="200" y2="200" stroke="black" />
<line x1="100" y1="200" x2="300" y2="200" stroke="black" />
<line x1="200" y1="200" x2="300" y2="200" stroke="black" />


</svg>
