<?xml version="1.0" encoding="utf-8"?>
<svg xmlns="http://www.w3.org/2000/svg" version="1.1" width="1000" height="1000">

<circle cx="200" cy="100" r="7" fill="yellow" />
<text x="194" y="85" fill="black" >A</text>
<text x="194" y="70" fill="black" >CP : </text>
<text x="194" y="55" fill="black" >CVP : 6.83032e+073</text>
<text x="194" y="40" fill="black" >CD : 1</text>
<circle cx="100" cy="200" r="7" fill="yellow" />
<text x="94" y="185" fill="black" >B</text>
<text x="94" y="170" fill="black" >CP : </text>
<text x="94" y="155" fill="black" >CVP : 0</text>
<text x="94" y="140" fill="black" >CD : 1</text>
<circle cx="200" cy="200" r="7" fill="red" />
<text x="194" y="185" fill="black" >C</text>
<text x="194" y="170" fill="black" >CP : </text>
<text x="194" y="155" fill="black" >CVP : 0</text>
<text x="194" y="140" fill="black" >CD : 4</text>
<circle cx="300" cy="200" r="7" fill="yellow" />
<text x="294" y="185" fill="black" >D</text>
<text x="294" y="170" fill="black" >CP : </text>
<text x="294" y="155" fill="black" >CVP : 0</text>
<text x="294" y="140" fill="black" >CD : 1</text>
<circle cx="200" cy="300" r="7" fill="yellow" />
<text x="194" y="285" fill="black" >E</text>
<text x="194" y="270" fill="black" >CP : </text>
<text x="194" y="255" fill="black" >CVP : 0</text>
<text x="194" y="240" fill="black" >CD : 1</text>
<line x1="200" y1="100" x2="200" y2="200" stroke="black" />
<line x1="100" y1="200" x2="200" y2="200" stroke="black" />
<line x1="200" y1="200" x2="300" y2="200" stroke="black" />
<line x1="200" y1="200" x2="200" y2="300" stroke="black" />


</svg>
